<svg version="1" xmlns="http://www.w3.org/2000/svg" viewBox="0 0 310 310">
  <path d="M0 155v63h310V92H0v63zm288.4-50.5c4.3.7 8.3 1.8 8.8 2.3.5.5-.3 4.7-2.2 10.4l-3 9.6-6.3-2c-7.4-2.4-23.2-2.9-28.9-.9-7.2 2.4-9 9.2-3.9 14 1.5 1.4 6.7 4.2 11.4 6.1 18.3 7.3 24.7 14.6 24.7 28.1 0 8.8-2.8 16.4-8.1 21.9-10.3 10.6-32.3 15.3-54.9 11.6-12.8-2.1-17.3-3.5-16.6-5.2.3-.7 1.7-5.2 3.1-9.9 1.5-4.7 2.7-8.5 2.8-8.5.1 0 2.7 1 5.7 2.2 7.6 3.1 28.5 3.3 34.3.4 7.5-3.7 8.7-12.2 2.4-17-1.8-1.3-7-4-11.7-5.8-17.4-7-22.2-12.2-22.8-24.4-.9-17.2 8.9-28.7 27.9-32.8 8.3-1.9 27.3-1.9 37.3-.1zm-222.6 6.7c1.1 3.5 5.7 19 10.3 34.6 4.5 15.5 8.6 27.9 8.9 27.5.4-.5 3.8-16 7.5-34.6l6.8-33.7h12.4c6.8 0 12.3.4 12.3.9 0 1-19.9 94.8-20.6 97.4-.5 1.6-2 1.7-17.2 1.5l-16.7-.3-10.4-34.7c-5.8-19.1-10.6-34.6-10.8-34.4-.2.1-3.2 14.9-6.8 32.7-3.6 17.8-6.7 33.4-7 34.6-.5 2.2-.9 2.3-13.1 2.3-11.5 0-12.5-.1-12-1.8.2-.9 5.1-23.4 10.7-50L30.4 105h33.5l1.9 6.2zM161 106c0 .5-1.6 8.5-3.5 17.7s-3.5 17.3-3.5 18c0 1 3.7 1.3 15.9 1.3h16l1.2-5.8c.6-3.1 2.4-11.6 3.8-18.7l2.7-13 13.2-.3c7.3-.1 13.2.1 13.2.5s-4.6 23-10.2 50L199.6 205h-13.4c-13.4 0-13.4 0-12.9-2.3.3-1.2 2.2-10.1 4.2-19.7 1.9-9.6 3.8-18.3 4.1-19.3.5-1.6-.7-1.7-15.8-1.7h-16.4l-4.4 21.5-4.4 21.5h-13.4c-13.4 0-13.4 0-12.9-2.3.3-1.2 4.9-23.1 10.2-48.7 5.3-25.6 9.8-47.1 10-47.8.5-1.5 26.5-1.8 26.5-.2z"/>
</svg>
